<svg enable-background="new 0 0 100 100" fill="#218adc" height="100" viewBox="0 0 100 100" width="100" xmlns="http://www.w3.org/2000/svg"><path d="m6.5 65.9c-2.2 0-4 1.8-4 4s1.7 4 3.9 4c12.5 0 24.5-4.9 33.3-13.6l-5.3-5.9c-7.3 7.3-17.4 11.5-27.9 11.5z"/><path d="m47.6 39.8 5.3 5.9c7.3-7.3 17.4-11.5 27.8-11.5h3.3l-4.1 4.1c-1.6 1.6-1.6 4.1 0 5.6 1.5 1.6 4.1 1.6 5.6 0l10.8-10.9c.7-.7 1.2-1.8 1.2-2.8 0-1.1-.4-2.1-1.2-2.8l-10.9-10.9c-.8-.8-1.8-1.2-2.8-1.2s-2 .4-2.8 1.2c-1.6 1.6-1.6 4.1 0 5.6l4.1 4.1h-3.3c-12.4.1-24.3 5-33 13.6z"/><path d="m96.3 67-10.8-10.9c-.8-.8-1.8-1.2-2.8-1.2s-2 .4-2.8 1.2c-1.5 1.5-1.5 4.1 0 5.6l4.1 4.1h-3.3c-11.2 0-21.9-4.8-29.3-13.2l-9.6-10.6c-9-10.1-21.8-15.9-35.3-15.9-2.2 0-4 1.8-4 4s1.7 4 3.9 4c11.3 0 22 4.8 29.4 13.2l9.5 10.7c9 10.1 21.8 15.8 35.3 15.8h3.4l-4.1 4.1c-1.5 1.5-1.5 4.1 0 5.6s4.1 1.5 5.6 0l10.9-10.9c1.5-1.6 1.5-4.1-.1-5.6z"/></svg>